<?xml version="1.0" encoding="UTF-8"?>
<svg width="127px" height="45px" viewBox="0 0 127 45" version="1.1" xmlns="http://www.w3.org/2000/svg" xmlns:xlink="http://www.w3.org/1999/xlink">
    <title>2E044240-4DE9-4A57-8062-184000739715@3x</title>
    <g id="Page-1" stroke="none" stroke-width="1" fill="none" fill-rule="evenodd">
        <g id="Domiciliación:-cuánto-depositar-Copy" transform="translate(-31.000000, -23.000000)" fill="#FFFFFF">
            <g id="Group-51" transform="translate(31.000000, 23.000000)">
                <path d="M109.8755,35.5546 C109.9195,35.4666 109.8845,35.4186 109.8295,35.4056 C107.3895,36.3726 102.0535,37.3436 98.7305,37.8386 C95.8575,38.2676 93.3945,38.3406 92.0145,38.4366 L91.3905,38.4866 C91.3175,38.4986 91.2755,38.5446 91.2645,38.6016 C91.2475,38.6536 91.2885,38.6906 91.3285,38.7226 C91.5805,39.0006 92.3905,39.7526 94.0075,39.9916 C95.8655,40.2466 98.6235,39.7626 102.0665,38.7706 C104.9535,37.9466 108.2585,36.5256 109.8755,35.5546" id="Fill-1"></path>
                <path d="M110.1353,37.0243 C108.5893,38.0803 106.4923,39.0953 103.9813,39.9623 C101.4363,40.8443 98.6953,41.5953 95.7123,42.0853 C95.6563,42.1023 95.6093,42.1393 95.5943,42.1973 C95.5943,42.2363 95.6093,42.2773 95.6333,42.2993 C96.1243,42.6883 96.7593,42.9153 97.5383,42.9983 C98.4993,43.1053 99.6583,42.9773 100.9883,42.6283 C102.1733,42.3153 103.3033,41.7933 104.5853,41.1783 C105.8053,40.5893 106.9683,39.9053 107.9553,39.2003 C108.9673,38.4823 109.7293,37.7763 110.2023,37.1583 C110.2093,37.0713 110.1793,37.0343 110.1353,37.0243" id="Fill-3"></path>
                <path d="M97.6035,9.8124 C98.2225,10.4734 99.0215,10.9484 99.9975,11.2534 L100.0705,11.2784 C100.3435,11.3514 116.6035,15.6134 120.9105,16.7704 C122.7935,17.2744 124.2855,17.6774 124.9835,17.8764 C125.0585,17.8814 125.0945,17.8534 125.1035,17.8084 C125.1035,17.7744 125.0835,17.7404 125.0415,17.7224 C122.3205,16.6334 105.5635,10.2314 99.2505,7.8244 L96.5935,6.7994 C96.5045,6.7904 96.4595,6.7944 96.4255,6.8294 C96.3995,6.8574 96.3955,6.9084 96.3975,6.9304 C96.4205,7.1564 96.5575,8.3604 97.0995,9.1824 C97.2545,9.4224 97.4235,9.6264 97.6035,9.8124" id="Fill-5"></path>
                <path d="M98.4492,3.5995 C98.7752,3.9985 99.0842,4.2575 99.6792,4.6155 C99.8772,4.7365 100.0772,4.8645 100.3062,4.9715 L101.8052,5.7285 C102.6582,6.1575 115.2172,11.9865 117.0512,12.8945 C119.2232,13.9575 121.3902,14.9765 122.3402,15.4515 C122.4352,15.4685 122.4812,15.4405 122.4552,15.3305 C120.1162,13.8775 111.1292,8.2445 104.7122,4.2955 L100.1122,1.5245 L99.2702,1.0095 L97.7072,0.0675 C97.6202,0.0365 97.5812,0.0435 97.5502,0.0675 C97.5002,0.0855 97.4852,0.1275 97.4852,0.1585 C97.4692,0.3725 97.4502,1.5485 97.8132,2.4455 C97.9812,2.8385 98.1902,3.2605 98.4492,3.5995" id="Fill-7"></path>
                <path d="M109.7988,39.995 C109.7778,39.992 109.7428,39.998 109.7228,40.011 C107.6448,42.052 104.5728,43.202 103.5558,43.514 C103.4978,43.521 103.4588,43.566 103.4478,43.62 C103.4478,43.67 103.4848,43.725 103.5278,43.749 C103.6868,43.828 104.9218,44.489 107.2628,43.308 C108.5958,42.638 109.2688,41.555 109.8698,40.117 C109.8928,40.031 109.8418,39.998 109.7988,39.995" id="Fill-9"></path>
                <path d="M124.6577,22.7157 C123.6127,23.0107 119.6277,24.0367 116.1077,24.9277 C113.0627,25.7107 109.6447,26.6417 109.6447,26.6417 C109.2857,26.7307 109.4167,26.8767 109.4557,26.9317 C109.5457,27.0747 109.7437,27.3837 109.9707,27.7647 C110.5167,28.6767 111.2607,28.5587 111.9267,28.3257 C112.0507,28.2837 124.1917,23.2337 124.7377,22.8667 C124.8317,22.8157 124.7707,22.7707 124.7657,22.7407 C124.7547,22.7047 124.6897,22.7157 124.6577,22.7157" id="Fill-11"></path>
                <path d="M119.2114,31.0839 L119.1344,31.1109 C117.5314,32.4389 115.0864,34.5719 112.5544,36.7219 C112.3134,36.9139 112.2224,37.2699 112.1224,37.7039 C111.9614,38.4199 111.5934,39.3579 111.5934,39.3579 C111.5214,39.5719 111.6234,39.6609 111.8264,39.4509 C113.7784,37.3549 118.1004,32.5889 119.2704,31.2269 C119.2944,31.1359 119.2604,31.0909 119.2114,31.0839" id="Fill-13"></path>
                <path d="M126.8594,19.6513 C124.7024,19.2553 98.4634,14.6243 98.4464,14.6243 C98.3994,14.6183 98.3444,14.6463 98.3044,14.6833 C98.2854,14.7323 98.2974,14.7853 98.3104,14.8383 C98.7354,16.1913 99.7604,17.5443 101.5304,18.0893 C101.7354,18.1523 101.9074,18.1733 102.1044,18.1923 C102.1044,18.1923 124.3544,19.6383 126.8314,19.8093 C126.8934,19.8093 126.9354,19.7833 126.9354,19.7403 C126.9354,19.6973 126.9034,19.6563 126.8594,19.6513" id="Fill-15"></path>
                <path d="M125.8569,21.0937 C125.0739,21.1167 123.4709,21.1237 121.4669,21.1317 C119.1569,21.1427 116.3019,21.1547 113.6399,21.1597 C110.0639,21.1717 104.3829,21.2097 104.3829,21.2097 C104.3469,21.2147 104.3019,21.2337 104.2739,21.2727 C104.2469,21.3137 104.2469,21.3507 104.2779,21.3877 C104.3529,21.6277 104.6849,22.2327 105.0429,22.6107 C105.7589,23.3487 106.5329,23.7367 107.3389,23.8207 C107.4359,23.8287 107.5299,23.8287 107.6279,23.8287 C107.7229,23.8287 107.8179,23.8167 107.9289,23.7987 C108.0359,23.7847 124.9469,21.4077 125.8619,21.2617 C125.9039,21.2537 125.9339,21.2217 125.9429,21.1877 C125.9429,21.1437 125.9039,21.0967 125.8569,21.0937" id="Fill-17"></path>
                <path d="M123.2881,25.1435 C122.1241,25.8585 119.0911,27.7085 116.5031,29.2615 C115.0511,30.1405 113.2201,31.1605 112.2721,31.7495 C112.1621,31.8195 112.0721,31.8165 112.1251,32.1085 C112.1251,32.1085 112.1681,32.3885 112.1981,32.7225 C112.3001,34.1225 112.8701,33.9685 113.7201,33.3205 L113.8191,33.2395 C116.7411,30.8395 122.1631,26.2895 123.3451,25.2985 C123.3741,25.1965 123.3451,25.1605 123.2881,25.1435" id="Fill-19"></path>
                <path d="M74.3481,10.0409 C68.5351,10.0509 63.0671,14.3219 62.8311,22.6369 C62.6211,30.1979 66.5741,35.4919 73.2591,35.4899006 C78.7541,35.4879 80.6821,31.6699 80.6821,31.6699 C80.9941,34.2249 82.3841,35.0049 85.1401,35.0039 L85.1331,10.0379 L74.3481,10.0409 Z M80.4161004,24.7479 C80.4171,28.2049 78.4321,31.4929 74.1121,31.4939003 C70.2521,31.4949 67.4851,28.9089 67.6601,22.6849 C67.8301,16.7109 70.7161,14.0839 74.5251,14.0829 C74.8241,14.0829 75.1041,14.0699 75.3761,14.0469 L75.3761,14.0529 L80.4131,14.0509 L80.4161004,24.7479 Z" id="Fill-21"></path>
                <path d="M37.3452,10.0506994 L37.3662,27.3627 C37.3662,29.8897 35.2732,31.1567 32.5072,31.1577 C29.5952,31.1577 27.6882,29.8927 27.6882,27.3647 L27.6482,14.4127 C27.6412,10.7197 25.3242,10.0547 23.2842,10.0547 L23.2902,28.4297 C23.2912,33.0707 27.4772,35.3467 32.3662,35.3447013 C37.1092,35.3437 41.7502,33.0657 41.7482006,28.4247 L41.7412,14.9737 C41.7402,11.3417 40.3692,10.0497 37.3452,10.0506994" id="Fill-23"></path>
                <path d="M12.9023,21.2509 L7.5553,19.7899 C6.0833,19.3849 4.7393,18.7479 4.7393,16.9579 C4.7383,15.0919 5.8703,14.1809 8.2483,14.1799 L13.0043,14.1789 C15.1073,14.1779 17.6113,13.4789 17.6163,10.0679 L8.6653,10.0789 C3.1523,10.0869 -0.0027,12.8619 -0.000700950294,16.8399 C0.0003,20.5419 2.3593,22.6209 6.5643,23.7349 L11.2173,24.9629 C13.1423,25.4799 13.8303,26.6779 13.8313,27.9089 C13.8313,29.7849 12.6443,30.9169 9.7563,30.9349 L0.8193,31.0059 L0.8203,35.0389 L9.9073,35.0369 C15.4173,35.0349 18.5753,32.0829 18.5743002,28.2009 C18.5723,24.2909 17.0283,22.3689 12.9023,21.2509" id="Fill-25"></path>
                <path d="M56.8037,10.0458 C51.3867,10.0468 47.6567,13.1688 47.6586992,19.5968 L47.6627,35.0138 L52.0247,35.0128 L52.0207,19.4458 C52.0197,16.1378 53.8087,14.1538 57.1807,14.1528 L58.4777,14.1528 C62.3047,14.1518 62.9287,12.1788 62.9277012,10.0438 L56.8037,10.0458 Z" id="Fill-27"></path>
            </g>
        </g>
    </g>
</svg>