<?xml version="1.0" encoding="utf-8"?>
<!-- Generator: Adobe Illustrator 16.0.0, SVG Export Plug-In . SVG Version: 6.00 Build 0)  -->
<!DOCTYPE svg PUBLIC "-//W3C//DTD SVG 1.1//EN" "http://www.w3.org/Graphics/SVG/1.1/DTD/svg11.dtd">
<svg version="1.1" id="Capa_1" xmlns="http://www.w3.org/2000/svg" xmlns:xlink="http://www.w3.org/1999/xlink" x="0px" y="0px"
	 width="563.996px" height="257.021px" viewBox="0 0 563.996 257.021" enable-background="new 0 0 563.996 257.021"
	 xml:space="preserve">
<g>
	<g>
		<path id="XMLID_306_" fill="#00AEC7" d="M453.233,178.938c0.163-0.325,0.034-0.503-0.17-0.554
			c-9.01,3.582-28.716,7.174-40.987,9.003c-10.611,1.588-19.71,1.854-24.803,2.207l-2.307,0.186
			c-0.27,0.046-0.423,0.215-0.464,0.425c-0.063,0.194,0.086,0.33,0.236,0.448c0.928,1.034,3.92,3.821,9.891,4.704
			c6.861,0.948,17.048-0.843,29.763-4.514C435.054,187.793,447.261,182.531,453.233,178.938z"/>
		<path id="XMLID_305_" fill="#00AEC7" d="M454.162,184.273c-5.713,3.909-13.455,7.667-22.729,10.879
			c-9.399,3.264-19.522,6.041-30.538,7.851c-0.209,0.067-0.383,0.203-0.438,0.417c0,0.144,0.055,0.299,0.145,0.379
			c1.811,1.44,4.154,2.282,7.034,2.591c3.547,0.398,7.827-0.075,12.74-1.363c4.375-1.163,8.55-3.096,13.286-5.372
			c4.504-2.18,8.799-4.714,12.446-7.326c3.737-2.655,6.551-5.27,8.302-7.562C454.434,184.447,454.326,184.308,454.162,184.273z"/>
		<path id="XMLID_304_" fill="#00AEC7" d="M407.88,83.407c2.285,2.45,5.237,4.209,8.84,5.34l0.269,0.092
			c1.009,0.271,61.053,16.075,76.956,20.366c6.954,1.869,12.463,3.367,15.042,4.105c0.273,0.019,0.408-0.089,0.443-0.254
			c0-0.125-0.075-0.252-0.229-0.32c-10.047-4.036-71.923-27.769-95.234-36.695l-9.812-3.795c-0.329-0.038-0.494-0.021-0.619,0.106
			c-0.096,0.105-0.114,0.292-0.104,0.376c0.084,0.834,0.589,5.297,2.589,8.344C406.593,81.963,407.216,82.719,407.88,83.407z"/>
		<path id="XMLID_303_" fill="#00AEC7" d="M410.474,59.788c1.203,1.48,2.344,2.439,4.54,3.763c0.733,0.447,1.472,0.921,2.315,1.319
			l5.537,2.808c3.147,1.589,49.522,23.196,56.292,26.561c8.022,3.941,16.024,7.718,19.531,9.476c0.35,0.068,0.519-0.039,0.425-0.445
			c-8.636-5.383-41.82-26.264-65.512-40.896l-16.988-10.271l-3.106-1.908l-5.772-3.494c-0.319-0.118-0.464-0.088-0.58,0
			c-0.183,0.067-0.237,0.222-0.237,0.336c-0.062,0.795-0.131,5.151,1.207,8.473C408.745,56.969,409.516,58.529,410.474,59.788z"/>
		<path id="XMLID_302_" fill="#00AEC7" d="M452.255,194.658c-0.08-0.01-0.206,0.012-0.279,0.058
			c-7.678,7.561-19.022,11.817-22.778,12.974c-0.215,0.026-0.359,0.193-0.4,0.393c0,0.186,0.135,0.392,0.296,0.478
			c0.587,0.292,5.147,2.742,13.793-1.629c4.923-2.484,7.412-6.493,9.633-11.818C452.603,194.792,452.415,194.669,452.255,194.658z"
			/>
		<path id="XMLID_301_" fill="#00AEC7" d="M507.495,131.089c-3.861,1.093-18.578,4.89-31.578,8.188
			c-11.245,2.896-23.867,6.342-23.867,6.342c-1.326,0.329-0.842,0.873-0.697,1.075c0.329,0.531,1.062,1.674,1.9,3.084
			c2.017,3.382,4.764,2.944,7.22,2.084c0.458-0.155,45.302-18.854,47.317-20.212c0.349-0.191,0.124-0.356,0.105-0.465
			C507.853,131.051,507.614,131.089,507.495,131.089z"/>
		<path id="XMLID_300_" fill="#00AEC7" d="M487.8,162.184l-0.284,0.104c-5.922,4.918-14.953,12.816-24.306,20.773
			c-0.889,0.713-1.227,2.032-1.598,3.639c-0.592,2.654-1.954,6.13-1.954,6.13c-0.266,0.793,0.11,1.122,0.862,0.346
			c7.209-7.763,23.174-25.416,27.498-30.461C488.109,162.378,487.983,162.212,487.8,162.184z"/>
		<path id="XMLID_298_" fill="#00AEC7" d="M516.2,119.127c-7.967-1.472-104.861-18.654-104.921-18.654
			c-0.176-0.019-0.376,0.086-0.525,0.221c-0.069,0.183-0.024,0.378,0.021,0.574c1.57,5.013,5.353,10.026,11.889,12.05
			c0.757,0.232,1.395,0.311,2.119,0.38c0,0,82.165,5.381,91.313,6.017c0.229,0,0.385-0.097,0.385-0.258
			C516.48,119.298,516.364,119.146,516.2,119.127z"/>
		<path id="XMLID_297_" fill="#00AEC7" d="M512.165,124.663c-2.893,0.085-8.81,0.108-16.213,0.136
			c-8.531,0.038-19.071,0.077-28.904,0.095c-13.206,0.042-34.184,0.176-34.184,0.176c-0.135,0.019-0.299,0.086-0.403,0.232
			c-0.102,0.153-0.102,0.288,0.015,0.424c0.274,0.89,1.502,3.131,2.822,4.532c2.645,2.737,5.503,4.172,8.48,4.483
			c0.355,0.036,0.704,0.036,1.064,0.036c0.354,0,0.703-0.049,1.111-0.114c0.395-0.049,62.849-8.84,66.23-9.38
			c0.154-0.03,0.266-0.148,0.299-0.273C512.483,124.845,512.338,124.671,512.165,124.663z"/>
		<path id="XMLID_293_" fill="#00AEC7" d="M502.476,139.809c-4.301,2.646-15.501,9.499-25.062,15.248
			c-5.362,3.253-12.123,7.029-15.625,9.214c-0.409,0.255-0.738,0.246-0.544,1.328c0,0,0.159,1.037,0.27,2.275
			c0.374,5.188,2.479,4.616,5.617,2.215l0.368-0.3c10.791-8.885,30.82-25.738,35.186-29.406
			C502.795,140.004,502.685,139.87,502.476,139.809z"/>
	</g>
</g>
<g>
	<path fill="#0033A0" d="M321.759,83.569c-21.469,0.03-41.665,15.849-42.542,46.65c-0.784,28.013,13.808,47.627,38.493,47.627
		c20.293,0,27.418-14.146,27.418-14.146c1.151,9.467,6.28,12.355,16.458,12.355V83.569H321.759z M344.155,138.06
		c0,12.804-7.335,24.984-23.288,24.984c-14.257,0-24.47-9.582-23.82-32.642c0.638-22.129,11.294-31.858,25.362-31.858
		c1.104,0,2.14-0.046,3.144-0.134v0.021h18.603V138.06z"/>
	<path id="XMLID_277_" fill="#0033A0" d="M184.959,83.569l0.06,64.133c0,9.36-7.732,14.053-17.949,14.053
		c-10.752,0-17.791-4.692-17.791-14.053l-0.134-47.985c-0.021-13.679-8.577-16.148-16.109-16.148v68.071
		c0,17.191,15.456,25.626,33.51,25.626c17.515,0,34.656-8.435,34.656-25.626l-0.015-49.831
		C201.188,88.354,196.13,83.569,184.959,83.569z"/>
	<path id="XMLID_267_" fill="#0033A0" d="M94.784,124.991l-19.745-5.42c-5.434-1.502-10.396-3.86-10.396-10.492
		c0-6.915,4.18-10.291,12.96-10.291h17.566c7.766,0,17.015-2.585,17.034-15.219l-33.055,0.03
		C58.79,83.62,47.137,93.898,47.137,108.634c0,13.714,8.709,21.421,24.239,25.553l17.183,4.551
		c7.107,1.915,9.647,6.357,9.647,10.918c0,6.95-4.386,11.143-15.052,11.202l-33,0.258v14.94h33.555
		c20.349,0,32.013-10.932,32.013-25.315C115.722,136.257,110.019,129.135,94.784,124.991z"/>
	<path id="XMLID_266_" fill="#0033A0" d="M256.747,83.569c-20.005,0-33.783,11.562-33.783,35.373v57.114h16.109v-57.666
		c0-12.257,6.61-19.603,19.062-19.603h4.789c14.133,0,16.438-7.31,16.438-15.219H256.747z"/>
</g>
</svg>
